<svg width="53" height="53" viewBox="0 0 53 53" fill="none" xmlns="http://www.w3.org/2000/svg">
    <path d="M26.3862 13.0878C29.9116 13.0927 33.2914 14.4954 35.7842 16.9882C38.2771 19.4811 39.6798 22.8607 39.6847 26.3861H52.7724C52.7724 19.3881 49.9922 12.6767 45.0439 7.72831C40.0955 2.77996 33.3842 0 26.3862 0C19.3882 0 12.6769 2.77996 7.72851 7.72831C2.78016 12.6767 0 19.3881 0 26.3861H13.0877C13.0926 22.8607 14.4953 19.4811 16.9882 16.9882C19.481 14.4954 22.8608 13.0927 26.3862 13.0878" fill="#4E0F8A"/>
    <path d="M26.3862 39.6843C24.2234 39.6833 22.0935 39.1551 20.1809 38.1455C18.2683 37.1358 16.6309 35.6752 15.4099 33.8901L4.60229 41.2778C7.02029 44.8153 10.2633 47.7105 14.0514 49.7132C17.8395 51.7159 22.0585 52.7658 26.3434 52.772C30.6283 52.7783 34.8503 51.7407 38.6442 49.7491C42.4381 47.7574 45.6897 44.8716 48.118 41.3412L37.3417 33.9215C36.12 35.6986 34.4842 37.1518 32.5757 38.1558C30.6671 39.1597 28.543 39.6843 26.3865 39.6843" fill="#81DABB"/>
</svg>
